<?xml version="1.0" encoding="UTF-8"?>
<svg version="1.1" xmlns="http://www.w3.org/2000/svg" width="512" height="512">
<path d="M0 0 C1.13062603 -0.00664781 2.26125205 -0.01329562 3.42613947 -0.02014488 C7.21686662 -0.03983884 11.00747567 -0.04521657 14.79824829 -0.05052185 C17.51519103 -0.06035013 20.23211898 -0.07305519 22.9490509 -0.08547974 C31.10088661 -0.12017751 39.25271765 -0.13580918 47.40461105 -0.14960304 C51.24590587 -0.15657065 55.08719533 -0.1657259 58.92848587 -0.17471123 C71.700166 -0.20390394 84.47184091 -0.22870036 97.24355125 -0.23933506 C98.4687589 -0.2403711 98.4687589 -0.2403711 99.71871821 -0.24142807 C100.94681069 -0.2424661 100.94681069 -0.2424661 102.19971311 -0.24352509 C103.8586975 -0.24493707 105.51768188 -0.24635788 107.17666626 -0.24778748 C107.99957506 -0.24849265 108.82248386 -0.24919782 109.67032929 -0.24992435 C123.00835461 -0.26217839 136.34609595 -0.3049858 149.6840034 -0.36072768 C163.38451055 -0.41751944 177.08487409 -0.44798582 190.78550017 -0.45234722 C198.47536813 -0.45542795 206.16484112 -0.46990733 213.85459518 -0.51362801 C220.40133908 -0.55074631 226.94758099 -0.56390157 233.49441503 -0.54592312 C236.8337046 -0.53747488 240.17113794 -0.54409116 243.51043129 -0.57374191 C247.13404867 -0.6040817 250.75505257 -0.59125315 254.37866211 -0.56762695 C255.42905934 -0.5866526 256.47945657 -0.60567825 257.56168401 -0.62528044 C264.10260431 -0.52372721 267.49718456 0.79086102 272.15729386 5.43053359 C274.90874697 8.51046277 277.57291488 11.62130073 280.13687134 14.85939026 C315.5004109 61.25308909 315.5004109 61.25308909 365.66123962 85.72129822 C384.36773817 87.62015207 403.62547897 86.35565012 422.19580078 83.57093811 C433.41553156 81.92603927 441.14829475 82.76638413 450.5663147 89.53761292 C458.71211847 96.38881573 465.60051739 104.60397006 467.8163147 115.28761292 C467.90671334 116.93414896 467.9453653 118.58389996 467.94774246 120.23291397 C467.95158361 121.23422891 467.95542475 122.23554385 467.9593823 123.26720166 C467.95851581 124.36522949 467.95764933 125.46325732 467.95675659 126.59455872 C467.96121328 128.34684631 467.96121328 128.34684631 467.96575999 130.13453364 C467.97293974 133.37826817 467.97561928 136.62197042 467.97635746 139.86571169 C467.97820909 143.36428196 467.98575732 146.86284078 467.99249268 150.36140442 C468.00607607 158.01488875 468.01210164 165.66836784 468.01650333 173.32186222 C468.01926756 178.10541711 468.02350542 182.88896998 468.02800751 187.6725235 C468.04020362 200.92793272 468.05050002 214.18334032 468.0538826 227.43875504 C468.05410216 228.2872616 468.05432173 229.13576816 468.05454795 230.00998704 C468.05476623 230.86049231 468.05498451 231.71099758 468.0552094 232.58727574 C468.05565286 234.31063032 468.05609942 236.0339849 468.05654907 237.75733948 C468.0567705 238.61217756 468.05699193 239.46701564 468.05722007 240.34775791 C468.06116147 254.17508562 468.07859379 268.00236041 468.10190859 281.82966772 C468.12567621 296.04090966 468.13808702 310.25212513 468.13925052 324.46338725 C468.14016461 332.43620988 468.14584902 340.40896369 468.16407013 348.38176727 C468.17954476 355.17671795 468.18454876 361.97157857 468.17633203 368.76654354 C468.17245045 372.22777682 468.17323122 375.68882917 468.18738937 379.15003967 C468.31885607 417.85987058 457.86446551 449.40497468 430.6913147 477.78761292 C404.89691837 502.97127841 372.50385239 512.80943968 337.04971313 512.59114075 C305.05941796 512.20249562 274.80523584 497.51928962 252.40859985 474.97071838 C248.55305951 470.89526681 245.01962392 466.544969 241.57022095 462.12355042 C240.90054275 461.27931818 240.90054275 461.27931818 240.2173357 460.41803074 C238.8163147 458.28761292 238.8163147 458.28761292 238.02722454 455.76697445 C236.76149599 452.33070491 235.65750307 450.643058 232.8163147 448.28761292 C225.64298465 446.22694111 217.65695455 447.00052183 210.2784729 447.10816956 C207.93092571 447.10603892 205.58337897 447.09946913 203.2358551 447.08879089 C196.85899207 447.07198487 190.48381533 447.11628391 184.10721612 447.17053914 C178.1080307 447.21147975 172.10898875 447.2045958 166.1097131 447.19722097 C154.21587809 447.18389624 142.32255181 447.21293531 130.42886353 447.27076721 C118.90445322 447.32667205 107.38015124 447.37028766 95.85562134 447.39186096 C94.79199659 447.39386564 94.79199659 447.39386564 93.70688448 447.39591081 C85.95616673 447.41008165 78.20545131 447.41980955 70.4547224 447.42495632 C69.77229687 447.42542112 69.08987134 447.42588591 68.38676625 447.42636479 C65.65757083 447.42818118 62.92837554 447.42997642 60.19917979 447.43123596 C51.5793322 447.43537569 42.95980879 447.45945676 34.34007132 447.50494111 C29.3890862 447.52883071 24.43811674 447.54086857 19.48708534 447.55040359 C17.1970085 447.55755834 14.90694088 447.5699362 12.61692429 447.58802223 C9.48117495 447.61223033 6.34589844 447.61774781 3.21006775 447.61904907 C2.31237413 447.63071785 1.41468052 447.64238662 0.48978406 447.65440899 C-11.83408337 447.60695028 -23.3026292 443.4529753 -32.4883728 435.14308167 C-42.75621924 423.9052313 -44.63496621 412.49941412 -44.57136536 397.85307312 C-44.57554227 396.28571723 -44.58102174 394.71836436 -44.58768517 393.15101707 C-44.60211171 388.85992926 -44.5979038 384.56903397 -44.59051836 380.27793574 C-44.58578206 375.64387517 -44.59830063 371.00985597 -44.60853577 366.37580872 C-44.62572015 357.30340986 -44.6265645 348.23108027 -44.62132286 339.15866937 C-44.61727919 331.78339873 -44.61872707 324.40814854 -44.62407112 317.03287888 C-44.62481954 315.98263697 -44.62556797 314.93239506 -44.62633907 313.85032763 C-44.62787057 311.71666448 -44.62940891 309.58300133 -44.63095403 307.44933818 C-44.64467782 287.44615161 -44.63924228 267.44300416 -44.62776882 247.43981849 C-44.617837 229.14751309 -44.63077648 210.85530885 -44.65470301 192.56301905 C-44.67909675 173.77169427 -44.68870118 154.9804166 -44.68205029 136.1890763 C-44.67855863 125.6426899 -44.68078664 115.09638129 -44.69830132 104.55000687 C-44.71302671 95.57195573 -44.7136543 86.59403717 -44.6962304 77.61598863 C-44.68772078 73.03737784 -44.68556996 68.45900384 -44.70088196 63.88040543 C-44.71474012 59.68450845 -44.70995153 55.48905089 -44.69064272 51.29317926 C-44.68688585 49.7798049 -44.68979566 48.26639525 -44.70025437 46.75305237 C-44.78593272 33.40033874 -42.43848687 23.25867204 -33.1836853 13.28761292 C-28.41102954 8.45757051 -23.5018604 4.82209 -17.1836853 2.28761292 C-16.38197088 1.94654542 -15.58025646 1.60547792 -14.75424767 1.25407505 C-9.80568978 -0.08537609 -5.10534461 -0.00508592 0 0 Z " fill="#FCCA4F" transform="translate(44.183685302734375,-0.2876129150390625)"/>
<path d="M0 0 C1.13062603 -0.00664781 2.26125205 -0.01329562 3.42613947 -0.02014488 C7.21686662 -0.03983884 11.00747567 -0.04521657 14.79824829 -0.05052185 C17.51519103 -0.06035013 20.23211898 -0.07305519 22.9490509 -0.08547974 C31.10088661 -0.12017751 39.25271765 -0.13580918 47.40461105 -0.14960304 C51.24590587 -0.15657065 55.08719533 -0.1657259 58.92848587 -0.17471123 C71.700166 -0.20390394 84.47184091 -0.22870036 97.24355125 -0.23933506 C98.4687589 -0.2403711 98.4687589 -0.2403711 99.71871821 -0.24142807 C100.94681069 -0.2424661 100.94681069 -0.2424661 102.19971311 -0.24352509 C103.8586975 -0.24493707 105.51768188 -0.24635788 107.17666626 -0.24778748 C107.99957506 -0.24849265 108.82248386 -0.24919782 109.67032929 -0.24992435 C123.00835461 -0.26217839 136.34609595 -0.3049858 149.6840034 -0.36072768 C163.38451055 -0.41751944 177.08487409 -0.44798582 190.78550017 -0.45234722 C198.47536813 -0.45542795 206.16484112 -0.46990733 213.85459518 -0.51362801 C220.40133908 -0.55074631 226.94758099 -0.56390157 233.49441503 -0.54592312 C236.8337046 -0.53747488 240.17113794 -0.54409116 243.51043129 -0.57374191 C247.13404867 -0.6040817 250.75505257 -0.59125315 254.37866211 -0.56762695 C255.42905934 -0.5866526 256.47945657 -0.60567825 257.56168401 -0.62528044 C264.10260431 -0.52372721 267.49718456 0.79086102 272.15729386 5.43053359 C274.90874697 8.51046277 277.57291488 11.62130073 280.13687134 14.85939026 C315.5004109 61.25308909 315.5004109 61.25308909 365.66123962 85.72129822 C384.36773817 87.62015207 403.62547897 86.35565012 422.19580078 83.57093811 C433.41553156 81.92603927 441.14829475 82.76638413 450.5663147 89.53761292 C458.71211847 96.38881573 465.60051739 104.60397006 467.8163147 115.28761292 C467.90671334 116.93414896 467.9453653 118.58389996 467.94774246 120.23291397 C467.95158361 121.23422891 467.95542475 122.23554385 467.9593823 123.26720166 C467.95851581 124.36522949 467.95764933 125.46325732 467.95675659 126.59455872 C467.96121328 128.34684631 467.96121328 128.34684631 467.96575999 130.13453364 C467.97293974 133.37826817 467.97561928 136.62197042 467.97635746 139.86571169 C467.97820909 143.36428196 467.98575732 146.86284078 467.99249268 150.36140442 C468.00607607 158.01488875 468.01210164 165.66836784 468.01650333 173.32186222 C468.01926756 178.10541711 468.02350542 182.88896998 468.02800751 187.6725235 C468.04020362 200.92793272 468.05050002 214.18334032 468.0538826 227.43875504 C468.05410216 228.2872616 468.05432173 229.13576816 468.05454795 230.00998704 C468.05476623 230.86049231 468.05498451 231.71099758 468.0552094 232.58727574 C468.05565286 234.31063032 468.05609942 236.0339849 468.05654907 237.75733948 C468.0567705 238.61217756 468.05699193 239.46701564 468.05722007 240.34775791 C468.06116147 254.17508562 468.07859379 268.00236041 468.10190859 281.82966772 C468.12567621 296.04090966 468.13808702 310.25212513 468.13925052 324.46338725 C468.14016461 332.43620988 468.14584902 340.40896369 468.16407013 348.38176727 C468.17954476 355.17671795 468.18454876 361.97157857 468.17633203 368.76654354 C468.17245045 372.22777682 468.17323122 375.68882917 468.18738937 379.15003967 C468.31885607 417.85987058 457.86446551 449.40497468 430.6913147 477.78761292 C404.89691837 502.97127841 372.50385239 512.80943968 337.04971313 512.59114075 C305.05941796 512.20249562 274.80523584 497.51928962 252.40859985 474.97071838 C248.55305951 470.89526681 245.01962392 466.544969 241.57022095 462.12355042 C240.90054275 461.27931818 240.90054275 461.27931818 240.2173357 460.41803074 C238.8163147 458.28761292 238.8163147 458.28761292 238.02722454 455.76697445 C236.76149599 452.33070491 235.65750307 450.643058 232.8163147 448.28761292 C225.64298465 446.22694111 217.65695455 447.00052183 210.2784729 447.10816956 C207.93092571 447.10603892 205.58337897 447.09946913 203.2358551 447.08879089 C196.85899207 447.07198487 190.48381533 447.11628391 184.10721612 447.17053914 C178.1080307 447.21147975 172.10898875 447.2045958 166.1097131 447.19722097 C154.21587809 447.18389624 142.32255181 447.21293531 130.42886353 447.27076721 C118.90445322 447.32667205 107.38015124 447.37028766 95.85562134 447.39186096 C94.79199659 447.39386564 94.79199659 447.39386564 93.70688448 447.39591081 C85.95616673 447.41008165 78.20545131 447.41980955 70.4547224 447.42495632 C69.77229687 447.42542112 69.08987134 447.42588591 68.38676625 447.42636479 C65.65757083 447.42818118 62.92837554 447.42997642 60.19917979 447.43123596 C51.5793322 447.43537569 42.95980879 447.45945676 34.34007132 447.50494111 C29.3890862 447.52883071 24.43811674 447.54086857 19.48708534 447.55040359 C17.1970085 447.55755834 14.90694088 447.5699362 12.61692429 447.58802223 C9.48117495 447.61223033 6.34589844 447.61774781 3.21006775 447.61904907 C2.31237413 447.63071785 1.41468052 447.64238662 0.48978406 447.65440899 C-11.83408337 447.60695028 -23.3026292 443.4529753 -32.4883728 435.14308167 C-42.75621924 423.9052313 -44.63496621 412.49941412 -44.57136536 397.85307312 C-44.57554227 396.28571723 -44.58102174 394.71836436 -44.58768517 393.15101707 C-44.60211171 388.85992926 -44.5979038 384.56903397 -44.59051836 380.27793574 C-44.58578206 375.64387517 -44.59830063 371.00985597 -44.60853577 366.37580872 C-44.62572015 357.30340986 -44.6265645 348.23108027 -44.62132286 339.15866937 C-44.61727919 331.78339873 -44.61872707 324.40814854 -44.62407112 317.03287888 C-44.62481954 315.98263697 -44.62556797 314.93239506 -44.62633907 313.85032763 C-44.62787057 311.71666448 -44.62940891 309.58300133 -44.63095403 307.44933818 C-44.64467782 287.44615161 -44.63924228 267.44300416 -44.62776882 247.43981849 C-44.617837 229.14751309 -44.63077648 210.85530885 -44.65470301 192.56301905 C-44.67909675 173.77169427 -44.68870118 154.9804166 -44.68205029 136.1890763 C-44.67855863 125.6426899 -44.68078664 115.09638129 -44.69830132 104.55000687 C-44.71302671 95.57195573 -44.7136543 86.59403717 -44.6962304 77.61598863 C-44.68772078 73.03737784 -44.68556996 68.45900384 -44.70088196 63.88040543 C-44.71474012 59.68450845 -44.70995153 55.48905089 -44.69064272 51.29317926 C-44.68688585 49.7798049 -44.68979566 48.26639525 -44.70025437 46.75305237 C-44.78593272 33.40033874 -42.43848687 23.25867204 -33.1836853 13.28761292 C-28.41102954 8.45757051 -23.5018604 4.82209 -17.1836853 2.28761292 C-16.38197088 1.94654542 -15.58025646 1.60547792 -14.75424767 1.25407505 C-9.80568978 -0.08537609 -5.10534461 -0.00508592 0 0 Z M-20.99227905 30.44386292 C-23.80004725 34.78899927 -24.43450219 38.54150207 -24.44095421 43.67175674 C-24.4474031 44.96850146 -24.45385199 46.26524617 -24.46049631 47.60128617 C-24.45755408 49.03849721 -24.45441865 50.47570785 -24.45111084 51.91291809 C-24.45484725 53.44112235 -24.45944874 54.96932471 -24.46484149 56.49752402 C-24.47708817 60.69885753 -24.47680905 64.9001115 -24.47445273 69.10145879 C-24.47404499 73.6319319 -24.48507975 78.16237938 -24.49456787 82.69284058 C-24.51118831 91.56992014 -24.5166779 100.44697315 -24.51779263 109.32406697 C-24.51874267 116.53974081 -24.52285076 123.75540589 -24.52919388 130.97107697 C-24.54680962 151.42617274 -24.5560323 171.88124753 -24.55453293 192.33635095 C-24.55445302 193.43933478 -24.55437311 194.54231861 -24.55429077 195.6787262 C-24.55420901 196.78305598 -24.55412725 197.88738575 -24.55404301 199.02518007 C-24.55323016 216.92139678 -24.57236682 234.81752931 -24.6005675 252.71372166 C-24.62929131 271.08680104 -24.64310806 289.45983936 -24.64137995 307.83294177 C-24.64071585 318.14905777 -24.64621708 328.46508555 -24.66773605 338.78118134 C-24.68594128 347.56504641 -24.69030064 356.34878328 -24.67671721 365.13265905 C-24.67018406 369.61378817 -24.67008281 374.09467128 -24.68742371 378.57577705 C-24.70314435 382.68043722 -24.70030125 386.7846561 -24.68285544 390.88930544 C-24.6797833 392.37181164 -24.68342609 393.85435068 -24.69457559 395.33681813 C-24.75965771 404.60648097 -24.39686396 412.35852304 -18.1836853 419.62745667 C-17.1936853 420.41829651 -17.1936853 420.41829651 -16.1836853 421.22511292 C-15.5236853 421.77038635 -14.8636853 422.31565979 -14.1836853 422.87745667 C-10.81712623 425.25114383 -8.22489635 426.53819738 -4.06826401 426.53370857 C-3.25215204 426.53769067 -2.43604007 426.54167277 -1.59519744 426.54577553 C-0.25862448 426.53703701 -0.25862448 426.53703701 1.10494995 426.52812195 C2.0557518 426.5298308 3.00655365 426.53153965 3.98616767 426.53330028 C7.17995161 426.53660097 10.3735266 426.52558186 13.56729126 426.5146637 C15.85356644 426.51409971 18.13984198 426.5144159 20.42611694 426.51554871 C26.6405895 426.5161237 32.85498522 426.5043456 39.06943989 426.49040079 C45.56104966 426.4779179 52.05266109 426.47672486 58.54428101 426.47434998 C69.44259006 426.46883541 80.34087067 426.45633384 91.23916626 426.43849182 C102.46442524 426.42013363 113.68967655 426.40597683 124.91494751 426.3974762 C125.60687959 426.39695075 126.29881167 426.3964253 127.01171139 426.39588393 C130.48293333 426.39327386 133.95415533 426.39074644 137.42537737 426.38826013 C166.22237517 426.3675269 195.01934426 426.33215204 223.8163147 426.28761292 C223.18364983 422.47531358 222.52863387 418.66896622 221.84365845 414.86573792 C218.51851193 395.85801322 217.58165985 379.15190507 221.8163147 360.28761292 C222.0947522 359.02175354 222.3731897 357.75589417 222.6600647 356.45167542 C229.15850845 329.72962655 244.71334635 305.71067016 266.8163147 289.28761292 C267.66322876 288.61472229 268.51014282 287.94183167 269.38272095 287.24855042 C296.65018599 266.19855505 331.72602913 260.79566955 365.28018188 264.95509338 C394.64669903 269.60809436 423.4652607 287.26126918 441.1288147 311.10011292 C444.2791227 315.35611631 444.2791227 315.35611631 447.8163147 319.28761292 C447.93316166 293.36634451 448.02130973 267.44511562 448.07537556 241.52363682 C448.1011475 229.48759719 448.136279 217.45172128 448.19351196 205.41578674 C448.24337751 194.92419017 448.27561305 184.43271219 448.28675717 173.9410004 C448.29327051 168.38664025 448.30855818 162.83261933 448.34496498 157.278368 C448.37897396 152.04740957 448.38935762 146.81692922 448.3818531 141.58587074 C448.38322544 139.66906891 448.39312853 137.75225062 448.41234207 135.83554459 C448.69856773 121.12761264 448.69856773 121.12761264 441.40886402 108.76615238 C435.62125851 103.42816997 429.49618319 101.83233948 421.85319519 101.93598938 C421.08106735 101.93428151 420.3089395 101.93257365 419.51341385 101.93081403 C416.94171052 101.92856385 414.37060955 101.94752322 411.79898071 101.96632385 C409.94888437 101.96876879 408.09878568 101.96979526 406.24868774 101.96951294 C402.27195971 101.97133741 398.29538783 101.98199321 394.31869698 101.99918365 C388.02756644 102.02512853 381.73662041 102.0240278 375.44544983 102.01789856 C357.55849068 102.00431243 339.67169809 102.02200148 321.78482056 102.07814026 C311.90030828 102.10892879 302.01609914 102.11468653 292.13155884 102.09325433 C285.88043224 102.081144 279.63041017 102.09997678 273.37942326 102.14173937 C269.48711292 102.16038079 265.59528762 102.14974813 261.7029953 102.13088799 C259.90187593 102.12799044 258.10069062 102.1370264 256.2997036 102.1590519 C241.01048151 102.33526375 241.01048151 102.33526375 235.99882507 98.20941162 C234.27237225 96.28431892 234.27237225 96.28431892 232.8163147 94.28761292 C232.3624706 93.68548414 231.9086265 93.08335537 231.44102955 92.46298027 C230.12569547 90.58468031 228.93497487 88.66245593 227.74942017 86.69996643 C210.76610396 60.01494989 186.75813441 26.89124061 154.27338409 19.10835266 C127.39097056 13.46438595 99.0467283 14.54747173 71.7538147 15.35011292 C70.80192103 15.37639723 69.85002737 15.40268155 68.86928844 15.42976236 C49.2765964 15.97356103 29.68677566 16.82896606 10.14492059 18.37072074 C8.67613885 18.48528679 7.20685531 18.5936301 5.73710608 18.69503224 C-5.5403286 19.49344868 -13.63054773 21.55105927 -20.99227905 30.44386292 Z " fill="#062A74" transform="translate(44.183685302734375,-0.2876129150390625)"/>
<path d="M0 0 C0.90154816 0.00424484 1.80309631 0.00848969 2.73196411 0.01286316 C5.59505815 0.02957817 8.45743329 0.06721683 11.3203125 0.10546875 C13.26821896 0.12052488 15.21613652 0.13421166 17.1640625 0.14648438 C21.92475372 0.17945817 26.68491146 0.23119062 31.4453125 0.29296875 C31.54553711 1.55141602 31.64576172 2.80986328 31.74902344 4.10644531 C32.13230488 8.87878777 32.53132864 13.64971637 32.93457031 18.42041016 C33.1053799 20.46596687 33.27219633 22.51186187 33.43457031 24.55810547 C34.48027009 37.69390206 36.15913625 50.41923543 39.00744629 63.28863525 C39.55461007 65.79327859 40.03438151 68.30861858 40.5078125 70.828125 C45.7584712 96.9350979 55.54399003 122.54609785 67.4453125 146.29296875 C67.89229492 147.19644043 68.33927734 148.09991211 68.79980469 149.03076172 C82.67213694 176.92024178 100.33419282 201.9333006 121.29296875 224.91796875 C122.69410922 226.46405479 124.07803044 228.02598053 125.44140625 229.60546875 C135.97854386 241.71620536 147.98910622 252.3626745 160.77929688 262.02539062 C162.42734778 263.2793004 164.05555981 264.55514493 165.6796875 265.83984375 C185.71492997 281.63046085 207.79519089 293.69615453 230.4453125 305.29296875 C230.4453125 308.95357025 230.26596005 310.1745603 228.8359375 313.3125 C228.32474365 314.46359253 228.32474365 314.46359253 227.80322266 315.63793945 C227.4376123 316.45222412 227.07200195 317.26650879 226.6953125 318.10546875 C215.15711281 344.70616234 214.91201402 369.54877849 219.96459961 397.60253906 C220.4815332 400.49568692 220.96416474 403.39367818 221.4453125 406.29296875 C192.02611127 406.40707548 162.60692575 406.49553965 133.18754843 406.5482954 C129.71292255 406.5545488 126.2382971 406.56102042 122.76367188 406.56762695 C122.07194773 406.56893851 121.38022359 406.57025006 120.66753811 406.57160135 C109.47285052 406.59334738 98.27829155 406.6327644 87.08368021 406.67873273 C75.59367648 406.7255199 64.10376317 406.75289472 52.61366606 406.76341122 C46.16118474 406.76993088 39.70899496 406.78525906 33.25660706 406.82161903 C27.18273243 406.85556858 21.10926933 406.86602354 15.03530884 406.85850716 C12.8068671 406.85988214 10.57841154 406.86982041 8.35005188 406.88899612 C5.30451928 406.91391725 2.26053513 406.90787661 -0.78503418 406.89424133 C-1.66443145 406.90880554 -2.54382873 406.92336975 -3.4498744 406.93837529 C-10.66600611 406.8512009 -15.26342724 404.23477087 -20.578125 399.484375 C-21.24714844 398.67806641 -21.24714844 398.67806641 -21.9296875 397.85546875 C-22.39117188 397.32050781 -22.85265625 396.78554688 -23.328125 396.234375 C-26.21782031 391.66055791 -26.80526954 387.10075073 -26.81195641 381.78298378 C-26.8184053 380.48363132 -26.82485419 379.18427886 -26.8314985 377.84555209 C-26.82855647 376.41059431 -26.82542105 374.97563691 -26.82211304 373.54067993 C-26.82585049 372.01089992 -26.83045239 370.48112183 -26.83584368 368.95134676 C-26.84807723 364.75034195 -26.8478128 360.54941676 -26.84545493 356.34839821 C-26.84504686 351.81659849 -26.85608493 347.28482432 -26.86557007 342.7530365 C-26.88218254 333.87576114 -26.88767971 324.99851235 -26.88879482 316.12122275 C-26.8897451 308.90604096 -26.89385435 301.69086795 -26.90019608 294.47568893 C-26.91780847 274.02143564 -26.92703485 253.56720334 -26.92553513 233.11294241 C-26.92545522 232.01026126 -26.9253753 230.90758011 -26.92529297 229.77148438 C-26.92521121 228.66745779 -26.92512945 227.5634312 -26.92504521 226.42594926 C-26.92423211 208.52912059 -26.9433758 190.63237603 -26.9715697 172.7355717 C-27.00028748 154.36133548 -27.01411063 135.9871403 -27.01238215 117.61288106 C-27.01171791 107.29625291 -27.01722524 96.97971296 -27.03873825 86.66310501 C-27.0569354 77.88033351 -27.06130938 69.09769022 -27.0477194 60.31490804 C-27.0411826 55.83389587 -27.04109825 51.35312976 -27.0584259 46.87214088 C-27.07413005 42.76880638 -27.0713204 38.6659136 -27.05385764 34.56259005 C-27.05078189 33.0794586 -27.05444184 31.5962944 -27.06557779 30.11320157 C-27.12877824 21.09792194 -26.92985797 14.37735635 -20.84375 7.3046875 C-20.29460938 6.86769531 -19.74546875 6.43070313 -19.1796875 5.98046875 C-18.63570312 5.53058594 -18.09171875 5.08070312 -17.53125 4.6171875 C-11.51448958 0.58619583 -7.06503965 -0.12634191 0 0 Z " fill="#FC8E01" transform="translate(46.5546875,19.70703125)"/>
<path d="M0 0 C4.41272758 4.17454058 8.11806069 8.74489947 11.75 13.6015625 C12.35328125 14.36726563 12.9565625 15.13296875 13.578125 15.921875 C21.84092313 26.90171937 27.47291927 40.32076164 30.75 53.6015625 C31.08644531 54.93574219 31.08644531 54.93574219 31.4296875 56.296875 C36.98761489 83.02060806 30.85613328 111.79395615 16 134.4765625 C-0.28213061 158.18785025 -24.36867938 174.60561031 -52.56054688 180.47021484 C-79.70280618 185.34176378 -107.10466282 179.40135239 -130.25 164.6015625 C-134.08631922 161.77629293 -137.67590065 158.74799184 -141.25 155.6015625 C-142.28125 154.8178125 -143.3125 154.0340625 -144.375 153.2265625 C-156.72777745 141.94793961 -165.34697454 127.08272281 -171.25 111.6015625 C-171.56710937 110.79074219 -171.88421875 109.97992188 -172.2109375 109.14453125 C-176.01414093 98.69513569 -176.55518179 87.93279392 -176.4375 76.9140625 C-176.4365332 75.17672852 -176.4365332 75.17672852 -176.43554688 73.40429688 C-176.28942176 44.81248194 -164.6190676 21.13539679 -144.8125 0.8515625 C-139.96904105 -3.88426403 -134.98254994 -7.80580757 -129.25 -11.3984375 C-128.34894531 -11.98238281 -127.44789063 -12.56632812 -126.51953125 -13.16796875 C-85.91027552 -38.32268991 -35.20867412 -30.24574931 0 0 Z " fill="#B0D852" transform="translate(459.25,310.3984375)"/>
<path d="M0 0 C10.35288094 -1.89124502 20.69000479 -3.11496253 31.1875 -3.8125 C31.96669044 -3.86456982 32.74588089 -3.91663963 33.54868317 -3.97028732 C54.22981914 -5.1871998 70.13041104 -2.33741845 86.03630257 11.5577755 C92.64433248 17.54821921 98.84127405 23.87237507 104.875 30.4375 C105.54450558 31.16489254 106.21401115 31.89228508 106.90380478 32.64171982 C131 58.97996011 131 58.97996011 131 62 C120.64711906 63.89124502 110.30999521 65.11496253 99.8125 65.8125 C98.64371433 65.89060472 98.64371433 65.89060472 97.45131683 65.97028732 C76.77018086 67.1871998 60.86958896 64.33741845 44.96369743 50.4422245 C38.35566752 44.45178079 32.15872595 38.12762493 26.125 31.5625 C25.45549442 30.83510746 24.78598885 30.10771492 24.09619522 29.35828018 C0 3.02003989 0 3.02003989 0 0 Z " fill="#FB8E01" transform="translate(231,20)"/>
<path d="M0 0 C2.8100346 1.79363911 4.50940468 3.01880935 6 6 C6.08705146 8.98970289 6.11550145 11.95584955 6.09765625 14.9453125 C6.0962413 15.8303244 6.09482635 16.7153363 6.09336853 17.62716675 C6.0877614 20.45981191 6.07520771 23.29237864 6.0625 26.125 C6.05748592 28.04296761 6.05292285 29.96093646 6.04882812 31.87890625 C6.03778966 36.58596782 6.02052025 41.2929706 6 46 C7.15000488 45.97905273 8.30000977 45.95810547 9.48486328 45.93652344 C13.76745056 45.86390937 18.04998383 45.81812271 22.33300781 45.78027344 C24.18368696 45.76020661 26.03430309 45.73294655 27.88476562 45.69824219 C30.55093977 45.64950567 33.21627287 45.62698213 35.8828125 45.609375 C36.70492218 45.58872986 37.52703186 45.56808472 38.37405396 45.54681396 C43.7229908 45.54474306 46.76224619 46.42883116 51 50 C52.12992055 52.25984109 52.29799956 53.79726487 52.4375 56.3125 C52.49808594 57.07175781 52.55867188 57.83101563 52.62109375 58.61328125 C51.83662117 61.62782683 50.29030732 63.02400761 47.89094543 64.93751526 C44.32969298 66.93851239 40.65109357 66.61019244 36.6640625 66.48828125 C35.34503433 66.47766914 35.34503433 66.47766914 33.99935913 66.46684265 C31.20701897 66.43898536 28.41672791 66.37626555 25.625 66.3125 C23.7252895 66.28740582 21.82554738 66.26459461 19.92578125 66.24414062 C15.28307176 66.18918737 10.64188257 66.10297692 6 66 C6.02618408 67.18029785 6.05236816 68.3605957 6.0793457 69.57666016 C6.17009567 73.97099729 6.22733906 78.36525221 6.2746582 82.76025391 C6.29974604 84.65948431 6.33382468 86.5586187 6.37719727 88.45751953 C6.4381033 91.19327521 6.46626653 93.9277507 6.48828125 96.6640625 C6.51408768 97.50804596 6.5398941 98.35202942 6.56648254 99.22158813 C6.56847809 103.45082279 6.30790315 106.17076927 3.61206055 109.53588867 C1 112 1 112 -1.28125 112.76171875 C-5.63668602 112.61602635 -7.46227946 112.42569543 -11 109.625 C-14.39740131 105.16591078 -14.13094848 101.70952293 -14.09765625 96.2734375 C-14.0962413 95.41062164 -14.09482635 94.54780579 -14.09336853 93.65884399 C-14.08776188 90.8975277 -14.07520827 88.13629188 -14.0625 85.375 C-14.05748586 83.5052095 -14.0529228 81.63541774 -14.04882812 79.765625 C-14.03779029 75.17705223 -14.0205212 70.58853977 -14 66 C-15.18553467 66.02094727 -16.37106934 66.04189453 -17.5925293 66.06347656 C-21.99995804 66.13599331 -26.40733426 66.18184215 -30.81518555 66.21972656 C-32.7212003 66.23981546 -34.62715362 66.26709194 -36.53295898 66.30175781 C-39.27603326 66.35039642 -42.01829125 66.37299579 -44.76171875 66.390625 C-45.61086349 66.41127014 -46.46000824 66.43191528 -47.33488464 66.45318604 C-51.42666113 66.45473044 -53.47207999 66.33259516 -57.01489258 64.10058594 C-60.06638097 60.87158506 -60.39178414 58.49531898 -60.359375 54.0390625 C-59.7567698 50.61993302 -57.63213933 49.06810948 -55 47 C-51.66844749 45.33422375 -47.93463941 45.87992144 -44.2734375 45.90234375 C-42.97921371 45.90446617 -42.97921371 45.90446617 -41.65884399 45.90663147 C-38.8975277 45.91223812 -36.13629188 45.92479173 -33.375 45.9375 C-31.5052095 45.94251414 -29.63541774 45.9470772 -27.765625 45.95117188 C-23.17705223 45.96220971 -18.58853977 45.9794788 -14 46 C-14.01571045 44.8447583 -14.0314209 43.6895166 -14.04760742 42.49926758 C-14.10200369 38.20360313 -14.13638533 33.907969 -14.16479492 29.61206055 C-14.17985946 27.75458655 -14.20031509 25.89714799 -14.22631836 24.03979492 C-14.26280459 21.36628461 -14.2797497 18.69324556 -14.29296875 16.01953125 C-14.30845261 15.19226028 -14.32393646 14.36498932 -14.33988953 13.51264954 C-14.34124444 8.84606535 -14.05529291 5.77297616 -11 2 C-7.31502204 -0.45665197 -4.28028214 -0.70086491 0 0 Z " fill="#062B74" transform="translate(391,331)"/>
</svg>
