<?xml version="1.0" encoding="UTF-8"?>
<svg version="1.1" xmlns="http://www.w3.org/2000/svg" width="512" height="512">
<path d="M0 0 C1.26736225 -0.00706559 2.53472449 -0.01413118 3.84049165 -0.02141088 C5.25490116 -0.01915931 6.66931038 -0.01671279 8.08371925 -0.01409245 C9.58005022 -0.01854249 11.07637883 -0.02385576 12.57270396 -0.02996117 C16.6950622 -0.04417955 20.81734519 -0.04580374 24.93972445 -0.04536426 C29.38154259 -0.04700908 33.82332943 -0.06006924 38.265131 -0.07155704 C47.98192087 -0.09443145 57.69868893 -0.10233014 67.41550207 -0.10738349 C73.47957975 -0.1106374 79.54365106 -0.11715798 85.60772514 -0.12438488 C102.38882112 -0.14395328 119.16991117 -0.16035632 135.95101929 -0.16326141 C137.025399 -0.16344898 138.09977871 -0.16363655 139.20671538 -0.16382981 C141.38485535 -0.16419606 143.56299532 -0.16455976 145.74113528 -0.16492092 C146.82240485 -0.16510373 147.90367442 -0.16528654 149.01770973 -0.16547489 C150.64158739 -0.16574572 150.64158739 -0.16574572 152.29827066 -0.16602201 C169.84814321 -0.16956521 187.39789317 -0.19659564 204.94772319 -0.23397278 C222.95459651 -0.2720173 240.96140893 -0.2914186 258.96832335 -0.29172093 C269.08315785 -0.29230633 279.1978461 -0.30085204 289.31264305 -0.32971859 C297.92394828 -0.35418088 306.53505392 -0.36155029 315.14638446 -0.34647106 C319.54199919 -0.33928119 323.93721939 -0.34024847 328.33279037 -0.36288166 C332.35475409 -0.3833932 336.37601801 -0.38094554 340.39797349 -0.36000682 C341.85489968 -0.35649682 343.31187556 -0.36148556 344.76873653 -0.37571125 C346.74566571 -0.39377498 348.72281751 -0.37814498 350.69975281 -0.36076355 C351.79893583 -0.36157801 352.89811885 -0.36239246 354.03061044 -0.3632316 C357.940694 0.464287 359.44583849 2.24531162 361.97571754 5.26006222 C363.55405747 8.41674208 363.1148862 11.80365656 363.10714531 15.26964188 C363.10919794 16.11126168 363.11125058 16.95288148 363.11336541 17.82000491 C363.11906896 20.67099479 363.11757405 23.52193686 363.11615944 26.37293148 C363.11874115 28.42524528 363.12175377 30.47755857 363.12516284 32.52987117 C363.13325883 38.19368566 363.13502385 43.85748751 363.13576031 49.52130711 C363.13760635 55.62026921 363.14515138 61.71922467 363.15189552 67.81818295 C363.16620732 81.86144116 363.1720077 95.9046952 363.17658747 109.94795896 C363.17892177 116.88433714 363.18252422 123.82071448 363.18628285 130.75709201 C363.19911947 154.49095216 363.20983877 178.22481184 363.21328545 201.95867538 C363.21350708 203.4491222 363.21372886 204.93956902 363.2139508 206.43001584 C363.21417144 207.92410736 363.21439192 209.41819888 363.21461225 210.91229039 C363.2150548 213.90980613 363.21550192 216.90732187 363.21595192 219.90483761 C363.21611601 221.01965575 363.21611601 221.01965575 363.21628341 222.15699547 C363.21991507 246.26259542 363.23583867 270.36816533 363.25914228 294.47375377 C363.28372283 319.94668709 363.29745745 345.41960322 363.29865336 370.89254874 C363.29882482 373.68733705 363.29904026 376.48212534 363.2992878 379.27691364 C363.29934356 379.96509247 363.29939933 380.65327129 363.29945679 381.36230402 C363.30060877 392.45041028 363.31164317 403.53848576 363.32617485 414.62658162 C363.34052138 425.76577658 363.3435342 436.90493252 363.33573487 448.04413775 C363.33181586 454.08212938 363.33281875 460.12001718 363.34679222 466.15799618 C363.35945634 471.6805178 363.35839996 477.20285678 363.34620151 482.72537788 C363.34423145 484.72808732 363.34738271 486.73080938 363.35604587 488.73350105 C363.36704437 491.44687854 363.35971762 494.15960069 363.34765434 496.87295914 C363.35904713 498.05084504 363.35904713 498.05084504 363.37067008 499.25252661 C363.3270782 503.76591754 362.80229829 506.69203826 359.97571754 510.26006222 C356.47353681 512.59484938 355.09204454 512.51202243 350.95143509 512.51733112 C349.68407284 512.52378002 348.4167106 512.53022891 347.11094344 512.53687322 C345.69653384 512.53393066 344.28212463 512.5307952 342.86771584 512.52748775 C341.37138526 512.53122212 339.87505664 512.53582278 338.37873113 512.5412184 C334.25636871 512.55349029 330.13408718 512.55318303 326.01171064 512.55082965 C321.56989564 512.55042254 317.12810693 512.56145049 312.68630409 512.57094479 C303.98007373 512.58757861 295.27387045 512.5930554 286.56762554 512.59416954 C279.49298308 512.59511887 272.41834957 512.5992234 265.34370995 512.60557079 C245.29923535 512.62318957 225.2547822 512.63240865 205.2102998 512.63090985 C203.58839545 512.63078998 203.58839545 512.63078998 201.93372536 512.63066769 C200.85114025 512.63058593 199.76855515 512.63050416 198.65316443 512.63041992 C181.10331005 512.62960681 163.55354146 512.64874934 146.00371189 512.67694442 C127.99683904 512.70564621 109.99000806 512.71948621 91.98311174 512.71775687 C81.86830168 512.71709204 71.75358154 512.72262498 61.63879204 512.74411297 C53.02750495 512.76228921 44.41634855 512.76670147 35.80505063 512.75309412 C31.40949047 512.74654646 27.01418128 512.74651172 22.61864471 512.76380062 C18.59676267 512.77945746 14.57533213 512.77674408 10.5534616 512.75923236 C9.09653862 512.75614606 7.63958255 512.75985581 6.18269856 512.77095251 C4.20573833 512.7850162 2.22864091 512.77212868 0.25168228 512.75784016 C-0.84750074 512.75827489 -1.94668376 512.75870963 -3.07917535 512.75915754 C-7.38567324 512.02935286 -9.74157936 509.97783887 -12.32070315 506.52391517 C-13.39665143 503.06191924 -13.30038271 499.62787457 -13.28155136 496.03841496 C-13.28505744 495.19816381 -13.28856351 494.35791266 -13.29217583 493.49219936 C-13.30152904 490.65784819 -13.29655643 487.82370072 -13.29170799 484.98934078 C-13.29544227 482.94426202 -13.3000429 480.89918469 -13.30543864 478.85410964 C-13.31771144 473.21953385 -13.31740315 467.58501723 -13.31504989 461.95043111 C-13.3146428 455.87942759 -13.32567046 449.80844331 -13.33516502 443.73744869 C-13.35179919 431.83793199 -13.35730153 419.93843445 -13.35838978 408.03890909 C-13.35930827 398.36990622 -13.36342184 388.70090977 -13.36979103 379.03190899 C-13.37158607 376.25040083 -13.3733657 373.46889266 -13.37514079 370.68738449 C-13.37558288 369.99592744 -13.37602498 369.30447039 -13.37648047 368.59206011 C-13.38879159 349.13847445 -13.39668132 329.68489103 -13.39579391 310.23130131 C-13.39576276 309.49761799 -13.3957316 308.76393468 -13.3956995 308.00801854 C-13.39553328 304.28926118 -13.3953352 300.57050382 -13.39513008 296.85174645 C-13.39509019 296.11316492 -13.3950503 295.37458339 -13.3950092 294.6136206 C-13.39492833 293.12002848 -13.39484473 291.62643636 -13.39475842 290.13284425 C-13.39353269 266.89088278 -13.40854894 243.64897965 -13.43590355 220.40703487 C-13.46661105 194.30543608 -13.48383686 168.20387561 -13.48197711 142.10225761 C-13.48182784 139.32012073 -13.48173043 136.53798386 -13.48166847 133.75584698 C-13.48164516 133.07079488 -13.48162185 132.38574278 -13.48159784 131.67993153 C-13.48153624 120.64605486 -13.49431885 109.61222875 -13.511533 98.57836713 C-13.52846983 87.493162 -13.53013486 76.40801618 -13.51731436 65.32280125 C-13.51076446 59.31502267 -13.51074033 53.30742774 -13.52802086 47.2996664 C-13.54366726 41.80364302 -13.54097461 36.30795019 -13.52345259 30.81193529 C-13.52036404 28.82003521 -13.52408426 26.82811097 -13.53517275 24.83623935 C-13.54921891 22.13488606 -13.53876685 19.43470428 -13.52206039 16.73339176 C-13.53199675 15.95454189 -13.54193311 15.17569203 -13.55217057 14.37324065 C-13.48412148 9.19212421 -12.32594626 6.23392525 -9.02428246 2.26006222 C-5.52280329 -0.07425723 -4.13985645 0.00734994 0 0 Z M9.97571754 22.26006222 C9.97571754 176.70006222 9.97571754 331.14006222 9.97571754 490.26006222 C118.87571754 490.26006222 227.77571754 490.26006222 339.97571754 490.26006222 C339.97571754 335.82006222 339.97571754 181.38006222 339.97571754 22.26006222 C231.07571754 22.26006222 122.17571754 22.26006222 9.97571754 22.26006222 Z " fill="#000000" transform="translate(29.024282455444336,-0.26006221771240234)"/>
<path d="M0 0 C1.43473079 1.37288487 2.86371232 2.75177023 4.29248047 4.13085938 C5.08525391 4.86046875 5.87802734 5.59007812 6.69482422 6.34179688 C21.27890708 20.13131634 30.36325198 38.16638048 36.29248047 57.13085938 C36.73720703 58.53464844 36.73720703 58.53464844 37.19091797 59.96679688 C46.37177951 92.41796095 40.13436164 126.61191938 23.98779297 155.61914062 C7.45898307 184.03215285 -20.35924 203.46113468 -51.70751953 212.13085938 C-52.90763672 212.47117187 -54.10775391 212.81148437 -55.34423828 213.16210938 C-73.61666684 217.42896837 -95.6447683 217.25284254 -113.70751953 212.13085938 C-114.75625244 211.84082031 -114.75625244 211.84082031 -115.82617188 211.54492188 C-147.38841085 202.61572264 -174.20695754 181.51921738 -190.70751953 153.13085938 C-201.27810542 133.96456245 -206.11225728 113.93506826 -206.08251953 92.06835938 C-206.08197571 91.3896579 -206.08143188 90.71095642 -206.08087158 90.01168823 C-206.03924619 78.67243063 -205.08945705 68.00229837 -201.70751953 57.13085938 C-201.49853027 56.45104004 -201.28954102 55.7712207 -201.07421875 55.07080078 C-191.20272529 24.09575502 -169.92085497 -2.24898109 -141.03564453 -17.36914062 C-127.58320635 -24.12198874 -113.72296816 -29.10856916 -98.70751953 -30.86914062 C-97.73041016 -30.99160156 -96.75330078 -31.1140625 -95.74658203 -31.24023438 C-61.16124999 -34.76846094 -25.43759792 -23.95857279 0 0 Z M-156.46142578 23.46899414 C-176.25042649 44.33649539 -183.29808663 70.05905066 -182.98095703 98.19726562 C-182.27262368 124.03740651 -169.97872835 147.27898977 -151.70751953 165.13085938 C-150.71751953 165.79085937 -149.72751953 166.45085937 -148.70751953 167.13085938 C-148.66884766 165.390625 -148.66884766 165.390625 -148.62939453 163.61523438 C-148.04154562 145.3507687 -143.20995402 130.98100234 -129.70751953 118.13085938 C-126.81340931 115.92853344 -123.85034686 113.95860293 -120.70751953 112.13085938 C-121.39587891 111.13119141 -121.39587891 111.13119141 -122.09814453 110.11132812 C-133.09960671 93.58602255 -135.76165353 74.41572915 -132.05908203 54.84570312 C-128.3922299 41.94903942 -120.19228467 30.93511278 -108.49267578 24.31054688 C-93.91994041 17.27074239 -79.23117435 15.80475186 -63.70751953 21.13085938 C-51.85589752 25.54159918 -43.32483583 34.00438269 -37.14501953 44.88085938 C-33.04886628 54.1417276 -32.21250406 62.40405174 -32.27001953 72.50585938 C-32.25003906 73.74335938 -32.23005859 74.98085937 -32.20947266 76.25585938 C-32.21511279 86.97211477 -34.24465924 96.31715787 -40.39501953 105.25585938 C-41.29800781 106.59003906 -41.29800781 106.59003906 -42.21923828 107.95117188 C-42.71037109 108.67046875 -43.20150391 109.38976562 -43.70751953 110.13085938 C-44.03751953 110.79085937 -44.36751953 111.45085937 -44.70751953 112.13085938 C-44.06685547 112.55496094 -43.42619141 112.9790625 -42.76611328 113.41601562 C-29.20045705 122.61478401 -21.30622715 132.86746919 -17.70751953 149.13085938 C-16.80272779 154.77105573 -16.22513378 160.44391333 -15.70751953 166.13085938 C3.8067023 150.20088237 15.10333715 126.53348619 17.84277344 101.65917969 C20.16037749 75.94013217 12.64704964 49.42798728 -3.89892578 29.49023438 C-6.11355956 26.97903225 -8.39266903 24.54965826 -10.70751953 22.13085938 C-11.38169922 21.38191406 -12.05587891 20.63296875 -12.75048828 19.86132812 C-29.78311573 1.61436701 -55.02703031 -7.81660911 -79.63623047 -8.84570312 C-109.43278814 -9.52262289 -135.75640276 2.46482387 -156.46142578 23.46899414 Z M-105.70751953 51.13085938 C-110.10254063 58.0609796 -110.93673374 64.19379476 -111.02001953 72.25585938 C-111.04902344 73.16851562 -111.07802734 74.08117187 -111.10791016 75.02148438 C-111.19005985 83.89365078 -108.4981829 90.98108774 -102.48486328 97.56054688 C-95.97917729 103.30842769 -88.96014955 105.52979511 -80.42626953 105.40429688 C-72.03079513 104.55992445 -65.29368288 100.29757088 -59.70751953 94.13085938 C-52.82038983 84.58869126 -53.75970063 72.38322651 -54.70751953 61.13085938 C-56.58444628 53.18367685 -62.08125158 47.65320592 -68.70751953 43.13085938 C-81.69917338 36.37337917 -96.30022601 40.35483724 -105.70751953 51.13085938 Z M-116.08251953 136.19335938 C-116.85337891 136.86496094 -117.62423828 137.5365625 -118.41845703 138.22851562 C-125.84422092 147.64377598 -126.37145334 156.84039859 -126.02001953 168.31835938 C-125.99487458 169.76167959 -125.97207246 171.2050426 -125.95166016 172.6484375 C-125.89722495 176.143485 -125.81130719 179.63688762 -125.70751953 183.13085938 C-100.74769748 193.93323696 -73.89599193 196.12335624 -47.97705078 186.78710938 C-42.99950326 185.03622973 -42.99950326 185.03622973 -38.70751953 182.13085938 C-38.45171708 178.49244566 -38.52227173 174.83967519 -38.52001953 171.19335938 C-38.50777344 170.18466797 -38.49552734 169.17597656 -38.48291016 168.13671875 C-38.46003401 156.29449896 -40.08964668 145.9538614 -48.20751953 136.94335938 C-57.52867882 128.42392446 -67.91435469 127.33533834 -79.9621582 127.53393555 C-82.27109352 127.56837539 -84.57620859 127.55450237 -86.88525391 127.53515625 C-97.67930152 127.54391859 -107.76758037 128.60207533 -116.08251953 136.19335938 Z " fill="#000000" transform="translate(282.70751953125,74.869140625)"/>
<path d="M0 0 C1.03318359 -0.00773437 2.06636719 -0.01546875 3.13085938 -0.0234375 C14.78053786 0.00607404 24.48996173 1.91175484 33.14453125 10.2578125 C40.99472863 19.47972857 41.50800201 30.30505794 41.47709656 41.99320984 C41.484148 43.35249148 41.49247992 44.71176697 41.50196868 46.07103378 C41.52404889 49.77785291 41.52766968 53.48448738 41.52796924 57.19136369 C41.53148893 61.20041707 41.55212519 65.20939029 41.57029724 69.21839905 C41.60660878 77.97060426 41.62065967 86.72275907 41.63013434 95.47502875 C41.6361693 100.94692613 41.64693512 106.41880777 41.65863991 111.89069557 C41.69037976 127.06193085 41.71709265 142.23315219 41.72339153 157.40442181 C41.72400224 158.85852239 41.72400224 158.85852239 41.72462528 160.34199874 C41.72543294 162.30690849 41.72623866 164.27181823 41.72704246 166.23672798 C41.72744804 167.21201351 41.72785362 168.18729904 41.72827148 169.19213867 C41.72867346 170.16862406 41.72907544 171.14510945 41.7294896 172.15118531 C41.73697764 187.96988833 41.78145426 203.78825062 41.8421289 219.6068305 C41.90402338 235.87493102 41.93575304 252.14286198 41.93721896 268.41108257 C41.93871654 277.53419319 41.9528119 286.65688339 42.00003624 295.77988243 C42.04008292 303.54830175 42.05227112 311.31615612 42.02905061 319.08465423 C42.01802575 323.04247679 42.01952429 326.99917739 42.05651855 330.95686722 C42.31930482 360.80235395 42.31930482 360.80235395 33.0625 374.25 C31.94278473 376.23930675 30.83684236 378.23652837 29.75390625 380.24609375 C28.71484372 382.06213639 27.67187868 383.87595181 26.625 385.6875 C23.4680386 391.18666402 20.31797213 396.67397586 17.4375 402.32421875 C17.04232178 403.09773682 16.64714355 403.87125488 16.23999023 404.66821289 C15.52436767 406.08457206 14.81973153 407.50656671 14.12915039 408.93530273 C11.74140947 413.65724239 9.37794253 416.321664 5.0625 419.25 C2.46484375 419.9140625 2.46484375 419.9140625 0 419.875 C-0.81597656 419.88789062 -1.63195312 419.90078125 -2.47265625 419.9140625 C-7.05364798 418.67988089 -9.0828075 415.66486541 -11.43383789 411.77294922 C-13.15184205 408.6646299 -14.80198325 405.52749122 -16.4375 402.375 C-17.67099916 400.03657006 -18.90628493 397.69919021 -20.14453125 395.36328125 C-20.6134655 394.47593544 -20.6134655 394.47593544 -21.09187317 393.57066345 C-24.82358739 386.53314272 -28.78180613 379.62464188 -32.76171875 372.72509766 C-33.26703125 371.84257324 -33.77234375 370.96004883 -34.29296875 370.05078125 C-34.73278076 369.28934814 -35.17259277 368.52791504 -35.62573242 367.7434082 C-36.27505737 366.50917114 -36.27505737 366.50917114 -36.9375 365.25 C-37.70858896 363.85404917 -37.70858896 363.85404917 -38.49525547 362.42989731 C-40.84825745 356.83325642 -40.35355924 350.84632707 -40.32518005 344.87823486 C-40.32935586 343.51059493 -40.33483473 342.14295846 -40.34149987 340.7753284 C-40.35594142 337.02698874 -40.35171382 333.27886921 -40.34433305 329.53051758 C-40.33960036 325.48401837 -40.35211227 321.43756671 -40.36235046 317.39108276 C-40.37954302 309.46676918 -40.38037736 301.54253488 -40.37513756 293.61820748 C-40.37109473 287.1753824 -40.37254077 280.73258074 -40.37788582 274.28975677 C-40.37863424 273.37246122 -40.37938266 272.45516567 -40.38015376 271.51007329 C-40.38168526 269.64650307 -40.38322361 267.78293285 -40.38476873 265.91936263 C-40.39849594 248.4437159 -40.393055 230.96811393 -40.38158352 213.49246821 C-40.37165548 197.51504647 -40.38458399 181.5377406 -40.40851771 165.56033674 C-40.4329193 149.14661984 -40.44251369 132.73295688 -40.43586498 116.31922221 C-40.43237453 107.10748727 -40.43459311 97.89584139 -40.45211601 88.68412018 C-40.46685142 80.84054592 -40.46745618 72.99712341 -40.4500451 65.15355209 C-40.44154287 61.15416941 -40.43936624 57.15505766 -40.45469666 53.15568924 C-40.46857769 49.48891135 -40.46373738 45.8226356 -40.44445742 42.1558865 C-40.43894143 40.21282784 -40.45294066 38.26974341 -40.46781152 36.32673383 C-40.37438894 25.15070002 -37.93139675 16.26913367 -30.078125 8.125 C-21.48413648 0.59741881 -10.94640252 -0.0816388 0 0 Z M-14.9375 26.25 C-17.49531522 30.08672283 -17.19056456 33.19535987 -17.1328125 37.63671875 C-17.1299826 38.45372757 -17.12715271 39.27073639 -17.12423706 40.11250305 C-17.11304541 42.72098459 -17.0879429 45.3291223 -17.0625 47.9375 C-17.05246888 49.70637525 -17.04334326 51.47525588 -17.03515625 53.24414062 C-17.01481122 57.579666 -16.97566134 61.9144483 -16.9375 66.25 C-5.3875 66.25 6.1625 66.25 18.0625 66.25 C18.13148517 61.21408231 18.19118238 56.17981308 18.22729492 51.14379883 C18.2423534 49.43182816 18.26280455 47.71989589 18.28881836 46.00805664 C18.3253319 43.54303495 18.34225562 41.07852465 18.35546875 38.61328125 C18.37095261 37.85163162 18.38643646 37.08998199 18.40238953 36.30525208 C18.40381599 31.77032004 17.97839839 28.78994093 15.0625 25.25 C10.70083671 22.259645 5.71331334 22.92015742 0.625 22.9375 C-0.78749023 22.91333008 -0.78749023 22.91333008 -2.22851562 22.88867188 C-9.0910684 22.8741733 -9.0910684 22.8741733 -14.9375 26.25 Z M-16.9375 89.25 C-16.9375 169.11 -16.9375 248.97 -16.9375 331.25 C-5.3875 331.25 6.1625 331.25 18.0625 331.25 C18.0625 251.39 18.0625 171.53 18.0625 89.25 C6.5125 89.25 -5.0375 89.25 -16.9375 89.25 Z M-15.9375 354.25 C-14.7825 356.415625 -13.6275 358.58125 -12.4375 360.8125 C-8.27083333 368.625 -4.10416667 376.4375 0.0625 384.25 C3.98318805 379.28325682 6.75342385 373.67661996 9.75 368.125 C10.35650391 367.01511719 10.96300781 365.90523438 11.58789062 364.76171875 C12.16087891 363.70339844 12.73386719 362.64507812 13.32421875 361.5546875 C13.84975342 360.58515137 14.37528809 359.61561523 14.91674805 358.61669922 C16.20774603 356.38821734 16.20774603 356.38821734 16.0625 354.25 C5.5025 354.25 -5.0575 354.25 -15.9375 354.25 Z " fill="#000000" transform="translate(454.9375,92.75)"/>
<path d="M0 0 C8.67176089 5.15424199 12.22848376 13.77052852 15.4375 23 C15.4375 23.66 15.4375 24.32 15.4375 25 C16.67113281 24.94779297 16.67113281 24.94779297 17.9296875 24.89453125 C28.54855278 24.6370299 36.81767038 25.48332878 44.74609375 33.02734375 C49.79167905 38.91191782 51.80821201 45.58537339 51.71875 53.234375 C50.97874997 60.51104192 48.0257265 66.30080953 42.4375 71 C41.38175781 71.77730469 41.38175781 71.77730469 40.3046875 72.5703125 C36.08178945 75.57707901 36.08178945 75.57707901 34.11328125 80.0859375 C34.44649951 82.7616304 35.22473645 85.27293031 35.98046875 87.85546875 C37.70344607 95.94020851 37.1324646 103.66615675 32.984375 110.84375 C28.79547449 116.68282344 23.50175098 120.4974835 16.4375 122 C5.58954712 123.70535504 -2.80959226 119.66332874 -11.6328125 113.5703125 C-13.72143942 112.71657316 -13.72143942 112.71657316 -16.1484375 114.265625 C-17.06882813 114.92046875 -17.98921875 115.5753125 -18.9375 116.25 C-26.60183436 121.64741857 -33.29141441 122.96524156 -42.5625 122 C-51.11820968 119.62341398 -56.10696858 114.38609668 -60.55859375 106.90625 C-64.11531819 100.15262539 -62.86524415 92.26111839 -61 85.17578125 C-60.46620186 82.52108872 -60.11785538 80.70080436 -60.5625 78 C-62.4407223 76.02432277 -64.21635614 74.39236368 -66.3125 72.6875 C-72.36582813 67.38863443 -76.08087277 63.7534514 -76.921875 55.453125 C-77.18611411 48.02507012 -76.93684453 42.13325929 -72.5625 36 C-72.02625 35.113125 -71.49 34.22625 -70.9375 33.3125 C-66.2173181 28.71653341 -61.04192698 25.93335799 -54.375 25.8046875 C-47.79955389 25.79758153 -47.79955389 25.79758153 -41.5625 24 C-38.61745564 20.57827555 -37.50664434 16.22897112 -36.1015625 12.015625 C-33.91867087 5.64122699 -29.13927084 1.79740249 -23.23828125 -1.16796875 C-15.97113379 -3.4276803 -6.94126037 -3.13306129 0 0 Z M-14.5625 21 C-17.86354898 27.34925165 -20.70086417 33.70759043 -23.15625 40.43359375 C-24.97487729 43.75258855 -26.03054007 44.58086847 -29.5625 46 C-33.27833835 46.60662944 -36.99515569 46.8777475 -40.75 47.125 C-42.74373926 47.27004549 -44.73724699 47.41832101 -46.73046875 47.5703125 C-48.04954224 47.65949951 -48.04954224 47.65949951 -49.39526367 47.75048828 C-51.60752584 47.88002119 -51.60752584 47.88002119 -53.5625 49 C-53.51550791 51.78819713 -53.00512374 53.51894531 -51.10595703 55.58300781 C-49.15147307 57.31746419 -47.15668017 58.98164651 -45.125 60.625 C-43.74865291 61.75981543 -42.3748451 62.89771941 -41.00390625 64.0390625 C-40.08653687 64.78470459 -40.08653687 64.78470459 -39.15063477 65.54541016 C-37.09187622 67.43104942 -35.68586797 69.11100841 -35.29467773 71.92993164 C-35.33157345 77.67724924 -36.221792 82.87560955 -37.625 88.4375 C-39.38308092 93.79436705 -39.38308092 93.79436705 -38.5625 99 C-32.5609993 98.44254835 -27.90324595 94.69601747 -22.9765625 91.50585938 C-18.34143257 88.63787273 -15.17567011 87.18957781 -9.5625 88 C-6.75390625 89.13671875 -6.75390625 89.13671875 -4.125 90.6875 C-3.1865625 91.22890625 -2.248125 91.7703125 -1.28125 92.328125 C1.76813557 94.20332187 4.75938755 96.14958365 7.68359375 98.21484375 C9.95854714 99.23325273 11.13668024 98.81413622 13.4375 98 C13.00135658 92.76627893 12.22167046 88.00150527 10.8125 82.9375 C9.47633372 77.73835796 8.978985 74.19595967 10.4375 69 C12.375 66.5625 12.375 66.5625 15.4375 64 C17.14967075 62.46259628 18.85767334 60.92054358 20.5625 59.375 C21.83480469 58.24191406 21.83480469 58.24191406 23.1328125 57.0859375 C24.9576439 55.43431044 26.72051985 53.76186852 28.4375 52 C27.80658177 49.95118119 27.80658177 49.95118119 26.4375 48 C24.11530368 47.32681105 24.11530368 47.32681105 21.38671875 47.3125 C19.87368164 47.22355469 19.87368164 47.22355469 18.33007812 47.1328125 C17.27240234 47.08898437 16.21472656 47.04515625 15.125 47 C4.61669827 46.55972611 4.61669827 46.55972611 0.5078125 44.609375 C-2.70792978 40.55632624 -4.46312336 36.02810101 -6.375 31.25 C-6.98504883 29.77466797 -6.98504883 29.77466797 -7.60742188 28.26953125 C-8.60525093 25.8512632 -9.58967343 23.42840918 -10.5625 21 C-11.8825 21 -13.2025 21 -14.5625 21 Z " fill="#000000" transform="translate(153.5625,328)"/>
<path d="M0 0 C1.20271042 -0.00744736 1.20271042 -0.00744736 2.42971802 -0.01504517 C5.08946585 -0.02968228 7.74915401 -0.03647174 10.40893555 -0.04199219 C12.25497947 -0.04774285 14.10102338 -0.0535006 15.94706726 -0.05926514 C19.82164794 -0.06977987 23.69620784 -0.07561928 27.57080078 -0.07910156 C32.53417183 -0.08458393 37.49726822 -0.10860444 42.46055317 -0.13707352 C46.27555643 -0.1557043 50.09049364 -0.16090576 53.90553856 -0.16243744 C55.73516528 -0.16546406 57.56479083 -0.17349291 59.39437294 -0.18662262 C61.9558355 -0.2036906 64.51662853 -0.20180102 67.078125 -0.1953125 C67.83311783 -0.20452728 68.58811066 -0.21374207 69.36598206 -0.22323608 C73.82983601 -0.18784118 76.71480428 0.35505272 80.2331543 3.16113281 C82.40523004 6.92606409 83.2331543 9.43214541 83.2331543 13.78613281 C82.03953463 17.81459917 80.43730868 19.50402918 77.2331543 22.16113281 C74.13708953 23.7091652 70.86484457 23.31727383 67.46630859 23.32226562 C66.66450165 23.32723053 65.8626947 23.33219543 65.03659058 23.33731079 C62.37684275 23.35194791 59.71715458 23.35873737 57.05737305 23.36425781 C55.21132912 23.37000848 53.36528522 23.37576622 51.51924133 23.38153076 C47.64466066 23.39204549 43.77010076 23.39788491 39.89550781 23.40136719 C34.93213676 23.40684956 29.96904037 23.43087007 25.00575542 23.45933914 C21.19075216 23.47796992 17.37581495 23.48317138 13.56077003 23.48470306 C11.73114332 23.48772969 9.90151776 23.49575854 8.07193565 23.50888824 C5.51047309 23.52595623 2.94968006 23.52406665 0.38818359 23.51757812 C-0.36680923 23.52679291 -1.12180206 23.53600769 -1.89967346 23.54550171 C-6.36352742 23.51010681 -9.24849569 22.96721291 -12.7668457 20.16113281 C-14.93892144 16.39620153 -15.7668457 13.89012021 -15.7668457 9.53613281 C-14.57322604 5.50766645 -12.97100009 3.81823645 -9.7668457 1.16113281 C-6.67078094 -0.38689957 -3.39853598 0.0049918 0 0 Z " fill="#32CCCC" transform="translate(240.766845703125,331.8388671875)"/>
<path d="M0 0 C0.7613324 -0.0049649 1.52266479 -0.00992981 2.30706787 -0.01504517 C4.82671004 -0.02965436 7.34628923 -0.03646698 9.8659668 -0.04199219 C11.61850486 -0.047745 13.3710429 -0.05350272 15.12358093 -0.05926514 C18.79967543 -0.06977182 22.47574807 -0.07561655 26.15185547 -0.07910156 C30.85615419 -0.08458325 35.56016304 -0.10860564 40.26437092 -0.13707352 C43.88554215 -0.15572286 47.50664392 -0.16090674 51.12785912 -0.16243744 C52.86176321 -0.1654597 54.59566621 -0.17347384 56.32952309 -0.18662262 C58.75896701 -0.2037301 61.18770732 -0.20179154 63.6171875 -0.1953125 C64.68582283 -0.20913467 64.68582283 -0.20913467 65.77604675 -0.22323608 C71.23898862 -0.1777342 75.40592939 1.06437665 79.31518555 4.97363281 C80.87439096 7.84585331 81.37400842 9.87986599 81.50268555 13.16113281 C80.02081591 17.76272799 78.78408243 20.80739031 74.50268555 23.16113281 C71.70226363 23.45660879 69.12497199 23.58149928 66.32519531 23.56518555 C65.50358917 23.5720488 64.68198303 23.57891205 63.83547974 23.58598328 C61.1215076 23.60427378 58.40811231 23.60041057 55.6940918 23.59472656 C53.80606396 23.59928738 51.91803779 23.60459265 50.03001404 23.61061096 C46.07316341 23.61954655 42.11651456 23.61711395 38.15966797 23.60717773 C33.09083761 23.59568909 28.022704 23.61589562 22.95396519 23.64509487 C19.05486125 23.66344806 15.15592454 23.66316614 11.25678825 23.65745735 C9.38809164 23.65730402 7.51938377 23.66335813 5.65072823 23.67574883 C3.03656542 23.69064003 0.42369295 23.67999601 -2.19042969 23.6628418 C-3.34625801 23.67734375 -3.34625801 23.67734375 -4.5254364 23.69213867 C-8.22134794 23.64139692 -10.31160906 23.28036476 -13.45204163 21.26405334 C-16.65570721 17.9700898 -17.32470597 14.68033666 -17.49731445 10.16113281 C-16.0787636 5.90548026 -14.35656964 3.45256558 -10.49731445 1.16113281 C-6.93869318 -0.02507428 -3.70380028 0.00576249 0 0 Z " fill="#33CBCB" transform="translate(242.497314453125,375.8388671875)"/>
<path d="M0 0 C0.80078476 -0.00700928 1.60156952 -0.01401855 2.42662048 -0.02124023 C5.06016238 -0.03877185 7.69262002 -0.02721515 10.32617188 -0.01367188 C12.16410528 -0.01636819 14.00203729 -0.02025177 15.83996582 -0.02526855 C19.6865806 -0.03115704 23.53282312 -0.02262166 27.37939453 -0.00390625 C32.30237715 0.01888298 37.22448742 0.0057564 42.14743805 -0.01819611 C45.94108618 -0.03267169 49.73452855 -0.02804004 53.52818298 -0.01768494 C55.34301355 -0.01502251 57.15786299 -0.01827033 58.97267151 -0.02760315 C61.51223004 -0.03779794 64.05038908 -0.02222787 66.58984375 0 C67.33495712 -0.00809692 68.0800705 -0.01619385 68.84776306 -0.02453613 C73.94869087 0.05789775 76.86099177 1.30911482 80.79492188 4.51757812 C82.32629844 7.08753533 82.72264916 9.53771833 82.79492188 12.51757812 C81.43378901 17.13030618 80.04706868 20.12574555 75.79492188 22.51757812 C72.21177425 23.71196067 68.93627171 23.68079854 65.20581055 23.69458008 C64.43472458 23.70115128 63.66363861 23.70772247 62.8691864 23.7144928 C60.3170868 23.73420527 57.76504598 23.74588351 55.21289062 23.75585938 C53.90434333 23.76197267 53.90434333 23.76197267 52.56936073 23.76820946 C47.95241152 23.78906098 43.33549196 23.80336693 38.71850586 23.81274414 C33.95358925 23.82380952 29.1891395 23.85821338 24.42438793 23.89791584 C20.75689331 23.92407776 17.08951004 23.93243557 13.42193031 23.93602562 C11.66568154 23.94089231 9.90943776 23.95250871 8.15328026 23.97106361 C5.69255061 23.99544769 3.23303062 23.99449185 0.7722168 23.98754883 C0.0504425 24.00035889 -0.67133179 24.01316895 -1.41497803 24.02636719 C-6.47004704 23.97452206 -9.31151356 22.68796326 -13.20507812 19.51757812 C-15.30065868 16.70164175 -16.23879179 14.8099354 -16.14648438 11.27148438 C-15.47755641 7.07172014 -15.04907878 5.2111708 -11.64733887 2.41564941 C-7.62944269 0.20017129 -4.46533561 -0.04852346 0 0 Z " fill="#32CCCC" transform="translate(241.205078125,420.482421875)"/>
</svg>
